<svg width="32" height="33" viewBox="0 0 32 33" fill="none" xmlns="http://www.w3.org/2000/svg">
<path d="M29.5607 8.14651L23.3535 1.93932C23.2146 1.7996 23.0493 1.68882 22.8672 1.61342C22.6852 1.53801 22.49 1.49946 22.2929 1.50001H3.5C3.10232 1.50047 2.72106 1.65865 2.43985 1.93986C2.15865 2.22106 2.00046 2.60232 2 3.00001V30C2.00046 30.3977 2.15865 30.7789 2.43985 31.0602C2.72106 31.3414 3.10232 31.4995 3.5 31.5H28.5C28.8977 31.4995 29.2789 31.3414 29.5601 31.0602C29.8414 30.7789 29.9995 30.3977 30 30V9.20707C30.0005 9.01002 29.962 8.81482 29.8866 8.63278C29.8112 8.45073 29.7004 8.28545 29.5607 8.14651ZM20 3.50001V9.50001H11V3.50001H20ZM28 29.5H4V3.50001H9V11.5H22V3.50001H22.0858L28 9.41419V29.5Z" fill="#FF7A00"/>
<path d="M15.7499 14.5C14.6127 14.5 13.501 14.8372 12.5554 15.469C11.6098 16.1009 10.8728 16.9989 10.4376 18.0496C10.0024 19.1002 9.88856 20.2564 10.1104 21.3718C10.3323 22.4872 10.8799 23.5117 11.6841 24.3159C12.4882 25.12 13.5128 25.6677 14.6282 25.8895C15.7436 26.1114 16.8997 25.9975 17.9504 25.5623C19.001 25.1271 19.8991 24.3901 20.5309 23.4445C21.1627 22.4989 21.4999 21.3872 21.4999 20.25C21.4983 18.7255 20.892 17.2639 19.814 16.186C18.736 15.108 17.2744 14.5017 15.7499 14.5ZM15.7499 24C15.0083 24 14.2832 23.7801 13.6666 23.368C13.0499 22.956 12.5692 22.3703 12.2854 21.6851C12.0016 20.9998 11.9273 20.2458 12.072 19.5184C12.2167 18.791 12.5738 18.1228 13.0983 17.5983C13.6227 17.0739 14.2909 16.7168 15.0184 16.5721C15.7458 16.4274 16.4998 16.5016 17.185 16.7855C17.8702 17.0693 18.4559 17.5499 18.868 18.1666C19.28 18.7833 19.4999 19.5083 19.4999 20.25C19.4988 21.2442 19.1034 22.1974 18.4003 22.9004C17.6973 23.6034 16.7442 23.9989 15.7499 24Z" fill="#FF7A00"/>
</svg>
