<svg width="32" height="32" viewBox="0 0 32 32" fill="none" xmlns="http://www.w3.org/2000/svg">
<path d="M16.354 2.64519L16.3544 2.64557L21.6464 7.93957L22.5 8.79351V7.58608V5.00008C22.5 4.86747 22.5527 4.74029 22.6465 4.64653C22.7402 4.55276 22.8674 4.50008 23 4.50008H25C25.1326 4.50008 25.2598 4.55276 25.3536 4.64653C25.4473 4.74029 25.5 4.86747 25.5 5.00008V11.5861V11.7933L25.6466 11.9398L28.354 14.6452C28.354 14.6452 28.3541 14.6453 28.3541 14.6453C28.4005 14.6918 28.4372 14.747 28.4622 14.8077C28.4873 14.8684 28.5001 14.9335 28.5 14.9992V15.0001V29.0001C28.5 29.1327 28.4473 29.2599 28.3536 29.3536C28.2598 29.4474 28.1326 29.5001 28 29.5001H19C18.8674 29.5001 18.7402 29.4474 18.6464 29.3536C18.5527 29.2599 18.5 29.1327 18.5 29.0001V21.0001V20.5001H18H14H13.5V21.0001V29.0001C13.5 29.1327 13.4473 29.2599 13.3536 29.3536C13.2598 29.4474 13.1326 29.5001 13 29.5001H4C3.86739 29.5001 3.74022 29.4474 3.64645 29.3536C3.55268 29.2599 3.5 29.1327 3.5 29.0001L3.5 15.0001L3.5 14.9992C3.49988 14.9335 3.51272 14.8684 3.53777 14.8077C3.56279 14.747 3.5995 14.6919 3.64581 14.6454C3.64587 14.6453 3.64593 14.6453 3.646 14.6452L15.6456 2.64563L15.646 2.64519C15.6924 2.59862 15.7476 2.56168 15.8084 2.53647C15.8691 2.51127 15.9342 2.49829 16 2.49829C16.0658 2.49829 16.1309 2.51127 16.1916 2.53647C16.2524 2.56168 16.3076 2.59862 16.354 2.64519ZM29 29.0001V15.0001H3V29.0001C3 29.2653 3.10536 29.5197 3.29289 29.7072C3.48043 29.8947 3.73479 30.0001 4 30.0001H13C13.2652 30.0001 13.5196 29.8947 13.7071 29.7072C13.8946 29.5197 14 29.2653 14 29.0001V21.5001V21.0001H14.5H17.5H18V21.5001V29.0001C18 29.2653 18.1054 29.5197 18.2929 29.7072C18.4804 29.8947 18.7348 30.0001 19 30.0001H28C28.2652 30.0001 28.5196 29.8947 28.7071 29.7072C28.8946 29.5197 29 29.2653 29 29.0001ZM4.5 28.0001V28.5001H5H12H12.5V28.0001V20.0001C12.5 19.8675 12.5527 19.7403 12.6465 19.6465C12.7402 19.5528 12.8674 19.5001 13 19.5001H19C19.1326 19.5001 19.2598 19.5528 19.3536 19.6465C19.4473 19.7403 19.5 19.8675 19.5 20.0001V28.0001V28.5001H20H27H27.5V28.0001V15.4141V15.207L27.3536 15.0605L16.3536 4.06053L16 3.70697L15.6464 4.06053L4.64645 15.0605L4.5 15.207V15.4141V28.0001Z" fill="#FF7A00" stroke="#FF7A00"/>
</svg>
