<svg width="32" height="32" viewBox="0 0 32 32" fill="none" xmlns="http://www.w3.org/2000/svg">
<path d="M19.7005 2.05835L5.99609 18.9959H13.9961L12.0267 29.8227C12.023 29.844 12.0239 29.8658 12.0295 29.8866C12.0351 29.9074 12.0452 29.9268 12.0591 29.9433C12.073 29.9598 12.0903 29.9731 12.1099 29.9822C12.1295 29.9912 12.1508 29.9959 12.1723 29.9959V29.9959C12.1953 29.9958 12.2179 29.9905 12.2384 29.9801C12.2589 29.9698 12.2768 29.9549 12.2905 29.9365L25.9961 12.9959H17.9961L19.9748 2.16773C19.9775 2.14615 19.9755 2.12426 19.9691 2.10351C19.9626 2.08275 19.9518 2.06361 19.9374 2.04735C19.923 2.03109 19.9053 2.01809 19.8854 2.00921C19.8656 2.00033 19.8441 1.99578 19.8223 1.99585V1.99585C19.7985 1.99594 19.7751 2.00165 19.7539 2.01251C19.7327 2.02337 19.7144 2.03908 19.7005 2.05835V2.05835Z" stroke="#FF7A00" stroke-width="2" stroke-linecap="round" stroke-linejoin="round"/>
</svg>
