<svg width="32" height="32" viewBox="0 0 32 32" fill="none" xmlns="http://www.w3.org/2000/svg">
<g clip-path="url(#clip0_2_131)">
<path d="M12.0009 13.3342H17.3346V25.3351" stroke="#FF7A00" stroke-width="2" stroke-linecap="round" stroke-linejoin="round"/>
<path d="M12.0009 26.6687H21.3349" stroke="#FF7A00" stroke-width="2" stroke-miterlimit="10" stroke-linecap="round"/>
<path d="M16 8C15.6044 8 15.2178 7.8827 14.8889 7.66294C14.56 7.44318 14.3036 7.13082 14.1522 6.76537C14.0009 6.39991 13.9613 5.99778 14.0384 5.60982C14.1156 5.22186 14.3061 4.86549 14.5858 4.58579C14.8655 4.30608 15.2219 4.1156 15.6098 4.03843C15.9978 3.96126 16.3999 4.00087 16.7654 4.15224C17.1308 4.30362 17.4432 4.55996 17.6629 4.88886C17.8827 5.21776 18 5.60444 18 6C18 6.53043 17.7893 7.03914 17.4142 7.41421C17.0391 7.78929 16.5304 8 16 8Z" fill="#FF7A00"/>
<circle cx="16" cy="16" r="15" stroke="#FF7A00" stroke-width="2"/>
</g>
<defs>
<clipPath id="clip0_2_131">
<rect width="32" height="32" fill="white"/>
</clipPath>
</defs>
</svg>
