<svg width="30" height="31" viewBox="0 0 30 31" fill="none" xmlns="http://www.w3.org/2000/svg">
<path d="M22 1.5C18.1491 1.5 15 4.6249 15 8.44624C15 9.5949 15.4466 10.7662 16.0208 12.0641C16.5951 13.362 17.3197 14.7368 18.0625 16.0075C19.5482 18.549 21.0521 20.6745 21.0521 20.6745L22 22.0493L22.9479 20.6745C22.9479 20.6745 24.4518 18.549 25.9375 16.0075C26.6803 14.7368 27.4049 13.362 27.9792 12.0641C28.5534 10.7662 29 9.5949 29 8.44624C29 4.6249 25.8509 1.5 22 1.5ZM10.2969 3.74306L1 7.6865V29.9L10.3698 25.8842L19.7031 29.3573L29 25.4139V15.3201C28.2572 16.7356 27.4323 18.0923 26.6667 19.2997V23.8944L20.8333 26.3545V24.4732L19.1198 22.0131C18.9375 21.7508 18.7233 21.4388 18.5 21.1087V26.4631L11.5 23.8582V6.63732L12.776 7.10764C12.89 6.32529 13.0951 5.57006 13.3958 4.86459L10.2969 3.74306ZM22 3.81541C24.5885 3.81541 26.6667 5.87758 26.6667 8.44624C26.6667 8.89395 26.3841 9.95216 25.8646 11.1234C25.3451 12.2947 24.6113 13.6243 23.8958 14.8498C22.9434 16.4778 22.5332 17.0567 22 17.8526C21.4668 17.0567 21.0566 16.4778 20.1042 14.8498C19.3887 13.6243 18.6549 12.2947 18.1354 11.1234C17.6159 9.95216 17.3333 8.89395 17.3333 8.44624C17.3333 5.87758 19.4115 3.81541 22 3.81541ZM9.16667 6.70968V23.8944L3.33333 26.3545V9.20599L9.16667 6.70968ZM22 6.70968C21.0339 6.70968 20.25 7.48752 20.25 8.44624C20.25 9.40497 21.0339 10.1828 22 10.1828C22.9661 10.1828 23.75 9.40497 23.75 8.44624C23.75 7.48752 22.9661 6.70968 22 6.70968Z" fill="#FF7A00"/>
</svg>
