<svg width="32" height="32" viewBox="0 0 32 32" fill="none" xmlns="http://www.w3.org/2000/svg">
<mask id="path-1-inside-1_2_61" fill="white">
<path d="M6.99915 6.99609L8.24915 26.9961C8.30852 28.1517 9.14915 28.9961 10.2491 28.9961H21.7491C22.8535 28.9961 23.6785 28.1517 23.7491 26.9961L24.9991 6.99609"/>
</mask>
<path d="M8.99525 6.87134C8.92635 5.76892 7.97681 4.93109 6.87439 4.99999C5.77197 5.06889 4.93414 6.01843 5.00304 7.12085L8.99525 6.87134ZM8.24915 26.9961L10.2465 26.8935C10.2461 26.8861 10.2457 26.8787 10.2453 26.8713L8.24915 26.9961ZM23.7491 26.9961L21.753 26.8713L21.7529 26.8741L23.7491 26.9961ZM26.9953 7.12085C27.0642 6.01843 26.2263 5.06889 25.1239 4.99999C24.0215 4.93109 23.0719 5.76892 23.003 6.87134L26.9953 7.12085ZM5.00304 7.12085L6.25304 27.1209L10.2453 26.8713L8.99525 6.87134L5.00304 7.12085ZM6.25178 27.0987C6.36075 29.2196 7.98898 30.9961 10.2491 30.9961V26.9961C10.2326 26.9961 10.2345 26.9935 10.2471 26.9987C10.2589 27.0036 10.2686 27.0107 10.2741 27.0162C10.2792 27.0214 10.2751 27.0194 10.2682 27.0033C10.2613 26.9875 10.2495 26.9525 10.2465 26.8935L6.25178 27.0987ZM10.2491 30.9961H21.7491V26.9961H10.2491V30.9961ZM21.7491 30.9961C24.0327 30.9961 25.618 29.2027 25.7454 27.1181L21.7529 26.8741C21.7488 26.9407 21.7353 26.9818 21.7265 27.0021C21.7177 27.0225 21.7122 27.0257 21.7178 27.0201C21.7238 27.014 21.7352 27.0054 21.7496 26.9995C21.7646 26.9932 21.7675 26.9961 21.7491 26.9961V30.9961ZM25.7453 27.1209L26.9953 7.12085L23.003 6.87134L21.753 26.8713L25.7453 27.1209Z" fill="#FF7A00" mask="url(#path-1-inside-1_2_61)"/>
<path d="M4.99927 6.99609H26.9993" stroke="#FF7A00" stroke-width="2" stroke-miterlimit="10" stroke-linecap="round"/>
<mask id="path-4-inside-2_2_61" fill="white">
<path d="M11.9965 6.9961V4.4961C11.9959 4.29896 12.0343 4.10364 12.1095 3.92139C12.1846 3.73914 12.2951 3.57356 12.4345 3.43415C12.5739 3.29475 12.7395 3.18428 12.9218 3.1091C13.104 3.03393 13.2993 2.99552 13.4965 2.9961H18.4965C18.6936 2.99552 18.8889 3.03393 19.0712 3.1091C19.2534 3.18428 19.419 3.29475 19.5584 3.43415C19.6978 3.57356 19.8083 3.73914 19.8835 3.92139C19.9586 4.10364 19.997 4.29896 19.9965 4.4961V6.9961"/>
</mask>
<path d="M9.99647 6.9961C9.99647 8.10067 10.8919 8.9961 11.9965 8.9961C13.101 8.9961 13.9965 8.10067 13.9965 6.9961H9.99647ZM11.9965 4.4961H13.9965L13.9965 4.49024L11.9965 4.4961ZM13.4965 2.9961L13.4906 4.9961H13.4965V2.9961ZM18.4965 2.9961V4.99611L18.5023 4.99609L18.4965 2.9961ZM19.9965 4.4961L17.9965 4.49024V4.4961H19.9965ZM17.9965 6.9961C17.9965 8.10067 18.8919 8.9961 19.9965 8.9961C21.101 8.9961 21.9965 8.10067 21.9965 6.9961H17.9965ZM13.9965 6.9961V4.4961H9.99647V6.9961H13.9965ZM13.9965 4.49024C13.9967 4.55673 13.9837 4.62259 13.9583 4.68405L10.2606 3.15873C10.0849 3.58469 9.99513 4.04118 9.99647 4.50196L13.9965 4.49024ZM13.9583 4.68405C13.933 4.74551 13.8957 4.80135 13.8487 4.84837L11.0203 2.01994C10.6945 2.34576 10.4363 2.73278 10.2606 3.15873L13.9583 4.68405ZM13.8487 4.84837C13.8017 4.89538 13.7459 4.93263 13.6844 4.95798L12.1591 1.26023C11.7331 1.43593 11.3461 1.69412 11.0203 2.01994L13.8487 4.84837ZM13.6844 4.95798C13.623 4.98334 13.5571 4.99629 13.4906 4.99609L13.5023 0.996109C13.0416 0.994759 12.5851 1.08452 12.1591 1.26023L13.6844 4.95798ZM13.4965 4.9961H18.4965V0.9961H13.4965V4.9961ZM18.5023 4.99609C18.4358 4.99629 18.37 4.98333 18.3085 4.95798L19.8338 1.26023C19.4079 1.08452 18.9514 0.994759 18.4906 0.996109L18.5023 4.99609ZM18.3085 4.95798C18.2471 4.93263 18.1912 4.89538 18.1442 4.84837L20.9726 2.01994C20.6468 1.69412 20.2598 1.43593 19.8338 1.26023L18.3085 4.95798ZM18.1442 4.84837C18.0972 4.80135 18.0599 4.74551 18.0346 4.68405L21.7323 3.15873C21.5566 2.73278 21.2985 2.34576 20.9726 2.01994L18.1442 4.84837ZM18.0346 4.68405C18.0092 4.6226 17.9963 4.55673 17.9965 4.49024L21.9965 4.50196C21.9978 4.04118 21.908 3.58469 21.7323 3.15873L18.0346 4.68405ZM17.9965 4.4961V6.9961H21.9965V4.4961H17.9965Z" fill="#FF7A00" mask="url(#path-4-inside-2_2_61)"/>
</svg>
