<svg width="32" height="32" viewBox="0 0 32 32" fill="none" xmlns="http://www.w3.org/2000/svg">
<path d="M16.0015 1.99609C10.5278 1.99609 6.00146 6.23443 6.00146 11.5586C6.00146 14.558 7.62438 18.2713 9.40204 21.4813C11.2065 24.7397 13.2845 27.676 14.3989 29.1815C14.5827 29.4329 14.8232 29.6375 15.1008 29.7788C15.3798 29.9208 15.6884 29.9948 16.0015 29.9948C16.3145 29.9948 16.6231 29.9208 16.9021 29.7788C17.1797 29.6375 17.4201 29.433 17.6039 29.1817C18.7183 27.6768 20.7964 24.7415 22.6009 21.4835C24.3786 18.2737 26.0015 14.5601 26.0015 11.5586C26.0015 6.23443 21.4751 1.99609 16.0015 1.99609Z" stroke="#FF7A00" stroke-width="2" stroke-linecap="round" stroke-linejoin="round"/>
<path d="M15.9985 15.9959C18.2077 15.9959 19.9985 14.205 19.9985 11.9959C19.9985 9.78671 18.2077 7.99585 15.9985 7.99585C13.7894 7.99585 11.9985 9.78671 11.9985 11.9959C11.9985 14.205 13.7894 15.9959 15.9985 15.9959Z" stroke="#FF7A00" stroke-width="2" stroke-linecap="round" stroke-linejoin="round"/>
</svg>
